<?xml version="1.0" standalone="no"?>
<!DOCTYPE svg PUBLIC "-//W3C//DTD SVG 20010904//EN"
 "http://www.w3.org/TR/2001/REC-SVG-20010904/DTD/svg10.dtd">
<svg version="1.0" xmlns="http://www.w3.org/2000/svg"
 width="100.000000pt" height="100.000000pt" viewBox="0 0 100.000000 100.000000"
 preserveAspectRatio="xMidYMid meet">
<metadata>
Created by potrace 1.11, written by Peter Selinger 2001-2013
</metadata>
<g transform="translate(0.000000,100.000000) scale(0.100000,-0.100000)"
fill="#000000" stroke="none">
<path d="M177 886 c-98 -37 -154 -118 -144 -213 14 -138 137 -292 445 -557 22
-19 22 -19 89 39 133 114 298 288 341 360 92 156 76 281 -45 352 -43 25 -58
28 -134 28 -77 0 -90 -3 -128 -28 -23 -15 -54 -45 -69 -67 -15 -22 -29 -39
-32 -39 -3 0 -17 17 -32 39 -45 65 -97 92 -181 97 -46 2 -86 -2 -110 -11z
m214 -42 c33 -16 50 -32 91 -84 l20 -25 18 25 c71 98 153 128 262 96 96 -28
156 -110 145 -199 -13 -99 -50 -137 -118 -123 -41 8 -58 32 -59 78 0 59 53 93
112 70 31 -11 42 -4 28 18 -14 23 -112 20 -139 -4 -43 -39 -44 -128 -2 -170
16 -15 34 -21 70 -21 l48 0 -21 -32 c-39 -56 -142 -160 -303 -305 -39 -35 -42
-36 -59 -20 -11 9 -46 39 -78 67 -33 27 -97 87 -142 133 l-84 84 20 26 c17 21
20 40 20 143 0 99 -3 119 -15 119 -12 0 -15 -19 -15 -114 0 -90 -3 -116 -15
-126 -19 -16 -31 -2 -71 76 -68 136 -23 257 110 300 51 17 133 11 177 -12z"/>
<path d="M464 666 c-3 -8 -5 -20 -3 -27 4 -33 -2 -39 -41 -39 -22 0 -40 -4
-40 -10 0 -5 18 -10 40 -10 42 0 44 -3 40 -52 -1 -20 3 -28 14 -28 12 0 16 10
16 40 l0 40 40 0 c22 0 40 5 40 10 0 6 -18 10 -40 10 l-40 0 0 40 c0 39 -15
54 -26 26z"/>
</g>
</svg>
